<svg xmlns="http://www.w3.org/2000/svg" viewBox="0 0 512 512" fill="none">
  <defs>
    <linearGradient id="bg" x1="0" y1="0" x2="1" y2="1">
      <stop offset="0%" stop-color="#1a5276"/>
      <stop offset="100%" stop-color="#1e6b9b"/>
    </linearGradient>
  </defs>
  <rect width="512" height="512" rx="96" fill="url(#bg)"/>
  <!-- Brain outline -->
  <g transform="translate(256,220)" stroke="#fff" stroke-width="22" stroke-linecap="round" stroke-linejoin="round" fill="none">
    <path d="M0-140 C60-140 100-100 100-40 C100-10 80,10 50,20 C80,30 100,50 100,80 C100,140 60,180 0,180 C-60,180 -100,140 -100,80 C-100,50 -80,30 -50,20 C-80,10 -100,-10 -100,-40 C-100,-100 -60,-140 0-140Z"/>
    <line x1="0" y1="-80" x2="0" y2="120"/>
    <path d="M-30-100 C-50-120 -90-120 -100-80" />
    <path d="M30-100 C50-120 90-120 100-80" />
    <path d="M-40,60 C-60,80 -90,80 -100,40" />
    <path d="M40,60 C60,80 90,80 100,40" />
  </g>
  <!-- Book -->
  <g transform="translate(256,400)">
    <rect x="-50" y="-25" width="100" height="60" rx="4" fill="#fff" opacity="0.95"/>
    <line x1="0" y1="-25" x2="0" y2="35" stroke="#1a5276" stroke-width="4"/>
    <line x1="-35" y1="-12" x2="-5" y2="-12" stroke="#1a5276" stroke-width="5" stroke-linecap="round"/>
    <line x1="-35" y1="5" x2="-5" y2="5" stroke="#1a5276" stroke-width="5" stroke-linecap="round"/>
    <line x1="-35" y1="20" x2="-5" y2="20" stroke="#1a5276" stroke-width="5" stroke-linecap="round"/>
    <line x1="5" y1="-12" x2="35" y2="-12" stroke="#1a5276" stroke-width="5" stroke-linecap="round"/>
    <line x1="5" y1="5" x2="35" y2="5" stroke="#1a5276" stroke-width="5" stroke-linecap="round"/>
    <line x1="5" y1="20" x2="35" y2="20" stroke="#1a5276" stroke-width="5" stroke-linecap="round"/>
  </g>
</svg>
